<svg width="20" height="20" viewBox="0 0 20 20" fill="none" xmlns="http://www.w3.org/2000/svg">
<path d="M11.975 17.5634L13.9708 17.5634C15.9587 17.5634 17.5633 15.9587 17.5633 13.9709L17.5633 11.975" stroke="white" stroke-width="1.76" stroke-linecap="round" stroke-linejoin="round"/>
<path d="M17.5633 7.18506L17.5633 5.18923C17.5633 3.20138 15.9587 1.59673 13.9708 1.59673L11.975 1.59672" stroke="white" stroke-width="1.76" stroke-linecap="round" stroke-linejoin="round"/>
<path d="M6.38667 1.59672L5.18917 1.59672C3.20132 1.59672 1.59667 3.20137 1.59667 5.18922L1.59667 6.38672" stroke="white" stroke-width="1.76" stroke-linecap="round" stroke-linejoin="round"/>
<path d="M1.59668 11.975L1.59668 13.9709C1.59668 15.9587 3.20133 17.5634 5.18918 17.5634L7.18501 17.5634" stroke="white" stroke-width="1.76" stroke-linecap="round" stroke-linejoin="round"/>
<path d="M11.5758 5.58832L7.58417 5.58832C5.98751 5.58832 5.18917 6.38665 5.18917 7.98332L5.18917 11.1767C5.18917 12.7733 5.98751 13.5717 7.58417 13.5717L11.5758 13.5717C13.1725 13.5717 13.9708 12.7733 13.9708 11.1767L13.9708 7.98332C13.9708 6.38665 13.1725 5.58832 11.5758 5.58832Z" stroke="white" stroke-width="1.76" stroke-linecap="round" stroke-linejoin="round"/>
<path d="M9.58 3.99167L9.58 15.1683" stroke="white" stroke-width="1.76" stroke-linecap="round" stroke-linejoin="round"/>
</svg>
