<svg id="Group1" width="1109" height="641" viewBox="0 0 1109 641" preserveAspectRatio="xMidYMid meet" fill="none" xmlns="http://www.w3.org/2000/svg" style="max-width: 100%; max-height: 100%;">
      <path d="M495.458 318.148V372.25" stroke="#FFF" stroke-width="19" stroke-linecap="round" stroke-dasharray="0,0,0,54.10198974609375"><animate attributeType="XML" attributeName="stroke-dasharray" repeatCount="1" dur="3.8461538461538463s" values="0,0,0,54.10198974609375; 
                0,27.050994873046875,27.050994873046875,0; 
                54.10198974609375,0,0,0" keyTimes="0; 0.5; 1" fill="freeze"></animate></path>
      <path d="M494.364 368.722V381.659" stroke="#FFF" stroke-width="19" stroke-linecap="round" stroke-dasharray="0,0,0,12.93701171875"><animate attributeType="XML" attributeName="stroke-dasharray" repeatCount="1" dur="3.8461538461538463s" values="0,0,0,12.93701171875; 
                0,6.468505859375,6.468505859375,0; 
                12.93701171875,0,0,0" keyTimes="0; 0.5; 1" fill="freeze"></animate></path>
      <path d="M935.577 565.665C935.577 594.669 976.85 542.142 948.154 557.762C931.344 566.913 953.981 580.736 959.333 564.228C961.832 556.519 956.152 549.444 948.154 552.734C938.583 556.67 955.512 584.316 948.154 592.963C923.813 621.564 965.837 598.106 944.66 591.885C933.482 588.601 934.068 610.201 954.442 597.632C976.871 583.796 937.243 568 942.215 601.224C947.337 635.456 974.638 596.357 953.743 582.546C946.212 577.568 925.092 581.517 931.036 594.759C936.952 607.937 966.455 609.129 959.333 590.089C940.754 540.423 925.04 641.871 957.935 608.049C981.69 583.624 905.833 594.894 941.167 610.922C1002.5 638.744 948.826 533.275 936.975 585.061C934.429 596.184 955.416 618.686 964.223 606.612C978.734 586.719 944.666 572.884 930.686 583.265C883.897 618.009 988.157 633.868 947.804 595.836C938.308 586.886 928.935 595.98 933.481 607.33C937.477 617.308 957.156 622.665 952.695 606.612C940.11 561.324 874.909 580.825 920.206 616.31C978.458 661.943 903.865 541.244 918.11 595.836C929.754 640.46 979.531 601.323 930.686 581.469C927.012 579.975 905.19 580.342 905.534 580.032C911.641 574.537 937.947 574.851 945.359 575.003C957.73 575.258 980.727 607.467 964.223 615.951C932.02 632.506 888.49 588.993 923.35 580.032C941.412 575.389 981.066 605.181 943.961 613.796C871.733 630.565 929.457 551.377 953.394 588.293C971.813 616.7 870.892 597.029 909.376 576.081C918.805 570.949 959.333 567.701 959.333 585.42C959.333 606.394 918.04 614.457 906.931 599.428C879.599 562.452 1003.92 591.287 958.634 608.049C871.584 640.27 926.882 537.838 959.333 581.469C996.96 632.06 851.895 597.418 916.014 575.003C926.867 571.209 965.397 578.956 950.25 597.991C929.88 623.589 882.441 587.498 919.158 574.285C981.701 551.778 986.468 615.736 927.193 609.485C906.489 607.302 885.401 579.814 918.11 577.159C933.229 575.931 979.722 598.067 946.407 609.485C920.546 618.348 883.848 583.259 916.014 565.305C937.012 553.585 989.821 579.176 968.066 606.253C957.918 618.883 918.809 620.146 918.809 597.632C918.809 562.465 958.364 587.313 967.018 597.991" stroke="#FFF" stroke-width="15" stroke-linecap="round" stroke-dasharray="0,0,0,2747.555419921875"><animate attributeType="XML" attributeName="stroke-dasharray" repeatCount="1" dur="3.8461538461538463s" values="0,0,0,2747.555419921875; 
                0,1373.7777099609375,1373.7777099609375,0; 
                2747.555419921875,0,0,0" keyTimes="0; 0.5; 1" fill="freeze"></animate></path>
      <path d="M494.984 354.077C494.984 324.023 505.552 9.39636 493.767 10.0009C447.365 12.381 442.761 239.791 440.226 277.615C433.26 381.508 444.54 491.116 429.274 593.603C421.714 644.358 389.259 643.827 382.425 589.702C374.049 523.36 395.114 448.019 451.177 434.439C501.21 422.32 546.698 474.986 580.163 515.581C608.2 549.591 604.5 413.407 604.5 395.428C604.5 344.095 615.413 361.155 625.186 404.791C627.956 417.154 640.613 501.541 642.831 496.856C660.69 459.136 653.782 399.525 653.782 357.197C653.782 296.366 677.641 403.601 681.161 417.274C683.943 428.077 706.011 534.981 712.799 475.01C717.696 431.751 714.016 385.324 714.016 341.593C714.016 301.177 776.321 350.475 785.202 304.923" stroke="#FFF" stroke-width="19" stroke-linecap="square" stroke-dasharray="0,0,0,2269.672607421875"><animate attributeType="XML" attributeName="stroke-dasharray" repeatCount="1" dur="3.8461538461538463s" values="0,0,0,2269.672607421875; 
                0,1134.8363037109375,1134.8363037109375,0; 
                2269.672607421875,0,0,0" keyTimes="0; 0.5; 1" fill="freeze"></animate></path>
      <path d="M347.007 225.233C243.754 272.858 122.018 307.265 30.4752 388.109C25.3232 392.659 13.1802 401.424 10.3489 409.825C7.18158 419.224 26.4101 411.914 34.4395 411.377C150.055 403.638 265.452 392.456 381.161 386.557C619.686 374.399 860.175 378.802 1099 378.802" stroke="#FFF" stroke-width="19" stroke-linecap="square" stroke-dasharray="0,0,0,1481.336181640625"><animate attributeType="XML" attributeName="stroke-dasharray" repeatCount="1" dur="3.8461538461538463s" values="0,0,0,1481.336181640625; 
                0,740.6680908203125,740.6680908203125,0; 
                1481.336181640625,0,0,0" keyTimes="0; 0.5; 1" fill="freeze"></animate></path>
      <setting>{"type":"direct","speed":13,"random":1,"shift":1,"size":1,"rupture":50}</setting></svg>
      