<svg width="20" height="21" viewBox="0 0 20 21" fill="none" xmlns="http://www.w3.org/2000/svg">
<path d="M16.4852 18.949L14.8383 18.9483L14.8391 17.3014C14.8394 16.6462 14.5794 16.0178 14.1163 15.5543C13.6532 15.0908 13.025 14.8303 12.3699 14.83L7.42923 14.8278C6.77406 14.8275 6.14561 15.0875 5.68213 15.5506C5.21865 16.0137 4.95811 16.6419 4.95782 17.297L4.95709 18.9439L3.31022 18.9432L3.31094 17.2963C3.31143 16.2044 3.74566 15.1573 4.51813 14.3856C5.29059 13.6138 6.33801 13.1805 7.42995 13.1809L12.3706 13.1831C13.4625 13.1836 14.5096 13.6179 15.2813 14.3903C16.0531 15.1628 16.4864 16.2102 16.486 17.3021L16.4852 18.949ZM9.90099 11.5352C9.25218 11.5349 8.60978 11.4068 8.01046 11.1582C7.41115 10.9097 6.86666 10.5455 6.40808 10.0865C5.9495 9.62756 5.58582 9.08275 5.3378 8.48322C5.08977 7.88368 4.96226 7.24117 4.96255 6.59236C4.96284 5.94354 5.09091 5.30114 5.33947 4.70183C5.58802 4.10251 5.95219 3.55802 6.41117 3.09944C6.87015 2.64087 7.41496 2.27718 8.0145 2.02916C8.61403 1.78113 9.25655 1.65362 9.90536 1.65391C11.2157 1.65449 12.4721 2.17557 13.3983 3.10253C14.3244 4.02949 14.8444 5.28638 14.8438 6.59672C14.8432 7.90706 14.3221 9.16349 13.3952 10.0896C12.4682 11.0158 11.2113 11.5357 9.90099 11.5352V11.5352ZM9.90172 9.88829C10.7753 9.88868 11.6132 9.54203 12.2312 8.9246C12.8492 8.30718 13.1965 7.46955 13.1969 6.59599C13.1973 5.72244 12.8507 4.8845 12.2332 4.26653C11.6158 3.64856 10.7782 3.30117 9.90463 3.30079C9.03107 3.3004 8.19314 3.64705 7.57517 4.26448C6.9572 4.8819 6.60981 5.71953 6.60942 6.59308C6.60904 7.46664 6.95569 8.30457 7.57311 8.92254C8.19054 9.54051 9.02816 9.8879 9.90172 9.88829V9.88829Z" fill="white"/>
</svg>
