<svg width="21" height="21" viewBox="0 0 21 21" fill="none" xmlns="http://www.w3.org/2000/svg">
<path d="M11.8617 17.8555C11.4069 17.8553 11.0384 17.4865 11.0386 17.0317L11.0415 10.4442C11.0417 9.98947 11.4106 9.62097 11.8653 9.62117L16.806 9.62335C17.2607 9.62355 17.6292 9.99238 17.629 10.4472L17.6261 17.0347C17.6259 17.4894 17.2571 17.8579 16.8023 17.8577L11.8617 17.8555ZM3.63022 11.2644C3.17545 11.2642 2.80695 10.8954 2.80715 10.4406L2.81006 3.8531C2.81026 3.39833 3.17909 3.02983 3.63386 3.03003L8.57449 3.03221C9.02926 3.03241 9.39776 3.40124 9.39756 3.85601L9.39465 10.4435C9.39445 10.8983 9.02562 11.2668 8.57085 11.2666L3.63022 11.2644ZM7.33642 9.61917C7.56381 9.61927 7.74822 9.43502 7.74832 9.20763L7.75014 5.09044C7.75024 4.86305 7.56599 4.67864 7.33861 4.67854L4.86829 4.67745C4.64091 4.67735 4.45649 4.8616 4.45639 5.08899L4.45457 9.20617C4.45447 9.43356 4.63872 9.61798 4.86611 9.61808L7.33642 9.61917ZM3.62732 17.8519C3.17254 17.8517 2.80404 17.4829 2.80424 17.0281L2.8057 13.7344C2.8059 13.2796 3.17473 12.9111 3.6295 12.9113L8.57013 12.9135C9.0249 12.9137 9.3934 13.2825 9.3932 13.7373L9.39174 17.031C9.39154 17.4858 9.02271 17.8543 8.56794 17.8541L3.62732 17.8519ZM4.45166 15.7937C4.45156 16.0211 4.63581 16.2055 4.8632 16.2056L7.33351 16.2067C7.5609 16.2068 7.74531 16.0225 7.74541 15.7951L7.74578 14.9717C7.74588 14.7443 7.56163 14.5599 7.33424 14.5598L4.86393 14.5587C4.63654 14.5586 4.45213 14.7429 4.45203 14.9702L4.45166 15.7937ZM12.686 15.7973C12.6859 16.0247 12.8702 16.2091 13.0976 16.2092L15.5679 16.2103C15.7953 16.2104 15.9797 16.0262 15.9798 15.7988L15.9816 11.6816C15.9817 11.4542 15.7975 11.2698 15.5701 11.2697L13.0998 11.2686C12.8724 11.2685 12.688 11.4527 12.6879 11.6801L12.686 15.7973ZM11.0444 3.85674C11.0446 3.40197 11.4135 3.03346 11.8682 3.03366L16.8089 3.03585C17.2636 3.03605 17.6321 3.40488 17.6319 3.85965L17.6305 7.1534C17.6303 7.60817 17.2615 7.97667 16.8067 7.97647L11.8661 7.97429C11.4113 7.97409 11.0428 7.60526 11.043 7.15049L11.0444 3.85674ZM13.1027 4.68109C12.8753 4.68099 12.6909 4.86524 12.6908 5.09262L12.6904 5.91606C12.6903 6.14345 12.8746 6.32786 13.1019 6.32796L15.5723 6.32905C15.7996 6.32915 15.9841 6.1449 15.9842 5.91752L15.9845 5.09408C15.9846 4.86669 15.8004 4.68228 15.573 4.68218L13.1027 4.68109Z" fill="#6BEF1A"/>
</svg>
